<svg width="119" height="119" version="1.1" xmlns="http://www.w3.org/2000/svg">
 <g>
  <rect id="bg" y="0" width="119" height="119" fill="#3398eb"/>
  <path id="shadow" d="m75.37 22.26v27.46l-10.54 8.559-11.24 45.27 15.42 15.42h49.95v-53.11z" fill="#1a7fd2"/>
  <path id="key" d="m37.47 37.46c0 10.06 6.861 18.58 16.12 21.17v44.91h17.97v-10.46h-6.196v-3.793h6.196v-10.46h-6.196v-20.19c9.264-2.593 16.12-11.11 16.12-21.17 0-12.1-9.97-22.41-22.38-22.12s-21.65 10.39-21.65 22.12zm22.03-13.4c7.437 0 13.34 5.963 13.34 13.4 0 7.437-5.903 13.34-13.34 13.34-7.437 0-13.37-5.903-13.37-13.34 0-7.437 5.932-13.4 13.37-13.4z" fill="#fff"/>
 </g>
</svg>
