<?xml version="1.0" encoding="UTF-8" standalone="no"?>
<!-- Created with Inkscape (http://www.inkscape.org/) -->

<svg
   xmlns:dc="http://purl.org/dc/elements/1.1/"
   xmlns:cc="http://creativecommons.org/ns#"
   xmlns:rdf="http://www.w3.org/1999/02/22-rdf-syntax-ns#"
   xmlns:svg="http://www.w3.org/2000/svg"
   xmlns="http://www.w3.org/2000/svg"
   xmlns:sodipodi="http://sodipodi.sourceforge.net/DTD/sodipodi-0.dtd"
   xmlns:inkscape="http://www.inkscape.org/namespaces/inkscape"
   width="567mm"
   height="133mm"
   viewBox="0 0 566.99999 133"
   version="1.1"
   id="svg4512"
   inkscape:version="0.92.2 (5c3e80d, 2017-08-06)"
   sodipodi:docname="logo.svg">
  <defs
     id="defs4506" />
  <sodipodi:namedview
     id="base"
     pagecolor="#ffffff"
     bordercolor="#666666"
     borderopacity="1.0"
     inkscape:pageopacity="0.0"
     inkscape:pageshadow="2"
     inkscape:zoom="0.24748737"
     inkscape:cx="900.51213"
     inkscape:cy="-299.80506"
     inkscape:document-units="mm"
     inkscape:current-layer="layer1"
     showgrid="false"
     inkscape:showpageshadow="false"
     fit-margin-top="0"
     fit-margin-left="0"
     fit-margin-right="0"
     fit-margin-bottom="0"
     inkscape:window-width="1920"
     inkscape:window-height="1016"
     inkscape:window-x="0"
     inkscape:window-y="27"
     inkscape:window-maximized="1" />
  <metadata
     id="metadata4509">
    <rdf:RDF>
      <cc:Work
         rdf:about="">
        <dc:format>image/svg+xml</dc:format>
        <dc:type
           rdf:resource="http://purl.org/dc/dcmitype/StillImage" />
        <dc:title></dc:title>
      </cc:Work>
    </rdf:RDF>
  </metadata>
  <g
     inkscape:label="Layer 1"
     inkscape:groupmode="layer"
     id="layer1"
     transform="translate(804.25863,281.10604)">
    <path
       id="path5121"
       d="m -716.97754,-214.60592 h -62.34364 v -24.93745 c 0,-18.33942 6.59804,-33.24995 24.93746,-33.24995 18.33942,0 24.93745,14.91053 24.93745,33.24995 v 5.1953 c 0,1.71445 1.40273,3.11718 3.11718,3.11718 h 2.07813 c 1.71445,0 3.11718,-1.40273 3.11718,-3.11718 v -4.80566 c 0,-22.96323 -10.15682,-41.87414 -33.12005,-41.95207 -22.98922,-0.0779 -33.37983,18.59918 -33.37983,41.56243 v 24.93745 h -4.15624 c -6.88378,0 -12.46873,5.58494 -12.46873,12.46873 v 41.56242 c 0,6.88377 5.58495,12.46873 12.46873,12.46873 h 74.81236 c 6.88377,0 12.46872,-5.58496 12.46872,-12.46873 v -41.56242 c 0,-6.88379 -5.58495,-12.46873 -12.46872,-12.46873 z m 4.15624,54.03115 c 0,2.28593 -1.87031,4.15624 -4.15624,4.15624 h -74.81236 c -2.28593,0 -4.15624,-1.87031 -4.15624,-4.15624 v -41.56242 c 0,-2.28594 1.87031,-4.15625 4.15624,-4.15625 h 74.81236 c 2.28593,0 4.15624,1.87031 4.15624,4.15625 z m -41.56242,-8.31249 c -2.28593,0 -4.15624,-1.87031 -4.15624,-4.15623 v -16.62498 c 0,-2.28593 1.87031,-4.15624 4.15624,-4.15624 2.28593,0 4.15624,1.87031 4.15624,4.15624 v 16.62498 c 0,2.28592 -1.87031,4.15623 -4.15624,4.15623 z"
       inkscape:connector-curvature="0"
       style="fill:#000000;stroke-width:0.25976512" />
    <g
       aria-label="LessPass"
       style="font-style:normal;font-variant:normal;font-weight:300;font-stretch:normal;font-size:123.47222137px;line-height:1.25;font-family:Overpass;-inkscape-font-specification:'Overpass Light';letter-spacing:0px;word-spacing:0px;writing-mode:lr-tb;fill:#000000;stroke-width:0.26458332"
       id="text5176"
       transform="translate(-11.23873)">
      <path
         d="m -661.1399,-174.72549 h 48.54575 v -7.79992 h -40.39658 v -73.69175 h -8.14917 z"
         style="font-size:116.41666412px;letter-spacing:-2.64583325px;fill:#000000;stroke-width:0.26458332"
         id="path5197"
         inkscape:connector-curvature="0" />
      <path
         d="m -578.95982,-173.32849 c 6.86859,0 13.50434,-2.91042 18.161,-6.75217 l -4.42383,-5.47158 c -4.54025,3.37608 -9.0805,4.65666 -13.38792,4.65666 -10.12825,0 -16.18191,-8.14916 -17.57891,-20.2565 h 40.513 c 0.23283,-2.56116 0.23283,-4.42383 0.23283,-5.70441 0,-20.02367 -10.82675,-28.75492 -23.51617,-28.75492 -15.25058,0 -25.8445,11.29242 -25.8445,31.08325 0,16.764 9.779,31.19967 25.8445,31.19967 z m -17.4625,-35.15784 c 0.6985,-13.50433 7.91634,-19.79083 17.4625,-19.79083 6.2865,0 15.13417,3.72533 15.25059,19.79083 z"
         style="font-size:116.41666412px;letter-spacing:-2.64583325px;fill:#000000;stroke-width:0.26458332"
         id="path5199"
         inkscape:connector-curvature="0" />
      <path
         d="m -524.99259,-173.32849 c 12.34016,0 20.02366,-6.40292 20.02366,-16.29834 0,-11.99091 -10.12825,-16.0655 -18.97591,-19.558 -6.985,-2.794 -13.62075,-5.35516 -13.62075,-11.40883 0,-4.77308 4.42383,-7.79992 11.29241,-7.79992 6.51934,0 11.176,3.37609 14.20284,6.40292 l 5.35516,-4.54025 c -4.77308,-5.70442 -11.29241,-9.0805 -19.32516,-9.0805 -11.176,0 -19.20875,6.05367 -19.20875,15.13417 0,10.01183 8.382,14.20283 17.81175,18.04458 7.21783,2.91042 14.78491,6.05367 14.78491,13.2715 0,5.588 -5.12233,8.61483 -11.64166,8.61483 -6.17009,0 -11.8745,-3.84175 -15.48342,-8.14916 l -5.70442,5.00591 c 5.00592,5.93725 12.45659,10.36109 20.48934,10.36109 z"
         style="font-size:116.41666412px;letter-spacing:-2.64583325px;fill:#000000;stroke-width:0.26458332"
         id="path5201"
         inkscape:connector-curvature="0" />
      <path
         d="m -473.75025,-173.32849 c 12.34017,0 20.02367,-6.40292 20.02367,-16.29834 0,-11.99091 -10.12825,-16.0655 -18.97592,-19.558 -6.985,-2.794 -13.62075,-5.35516 -13.62075,-11.40883 0,-4.77308 4.42384,-7.79992 11.29242,-7.79992 6.51933,0 11.176,3.37609 14.20283,6.40292 l 5.35517,-4.54025 c -4.77308,-5.70442 -11.29242,-9.0805 -19.32517,-9.0805 -11.176,0 -19.20875,6.05367 -19.20875,15.13417 0,10.01183 8.382,14.20283 17.81175,18.04458 7.21784,2.91042 14.78492,6.05367 14.78492,13.2715 0,5.588 -5.12233,8.61483 -11.64167,8.61483 -6.17008,0 -11.8745,-3.84175 -15.48341,-8.14916 l -5.70442,5.00591 c 5.00592,5.93725 12.45658,10.36109 20.48933,10.36109 z"
         style="font-size:116.41666412px;letter-spacing:-2.64583325px;fill:#000000;stroke-width:0.26458332"
         id="path5203"
         inkscape:connector-curvature="0" />
      <path
         d="m -437.52564,-174.72549 h 8.14917 v -33.64442 h 21.6535 c 18.74308,0 25.72808,-12.92225 25.72808,-23.86542 0,-11.8745 -6.2865,-23.98183 -25.72808,-23.98183 h -29.80267 z m 30.50117,-40.97867 h -22.352 v -33.17875 h 22.352 c 13.62075,0 17.22966,9.54617 17.22966,16.64758 0,7.79992 -4.42383,16.53117 -17.22966,16.53117 z"
         style="font-size:116.41666412px;letter-spacing:-2.64583325px;fill:#000000;stroke-width:0.26458332"
         id="path5205"
         inkscape:connector-curvature="0" />
      <path
         d="m -337.65931,-174.72549 h 7.56708 v -40.28017 c 0,-16.88042 -11.29242,-20.60575 -19.79083,-20.60575 -8.14917,0 -16.0655,3.4925 -20.83859,6.51933 l 2.32834,6.985 c 4.42383,-3.02683 11.75808,-6.40291 17.69533,-6.40291 6.63575,0 13.03867,2.56116 13.03867,14.55208 v 5.00592 c -5.82084,-3.14325 -11.05959,-4.191 -16.0655,-4.191 -11.29242,0 -21.6535,5.93725 -21.6535,19.67441 0,13.38792 8.26558,20.14009 20.2565,20.14009 6.40291,0 12.68941,-2.91042 17.4625,-7.21784 z m -16.64759,-5.70442 c -8.61483,0 -13.50433,-5.23875 -13.50433,-13.03867 0,-8.61483 6.86858,-12.573 14.90133,-12.573 5.12234,0 11.40884,2.32834 15.25059,4.8895 v 11.52525 c -3.60892,4.42384 -9.42975,9.19692 -16.64759,9.19692 z"
         style="font-size:116.41666412px;letter-spacing:-2.64583325px;fill:#000000;stroke-width:0.26458332"
         id="path5207"
         inkscape:connector-curvature="0" />
      <path
         d="m -297.28557,-173.32849 c 12.34017,0 20.02367,-6.40292 20.02367,-16.29834 0,-11.99091 -10.12825,-16.0655 -18.97592,-19.558 -6.985,-2.794 -13.62075,-5.35516 -13.62075,-11.40883 0,-4.77308 4.42383,-7.79992 11.29242,-7.79992 6.51933,0 11.176,3.37609 14.20283,6.40292 l 5.35517,-4.54025 c -4.77309,-5.70442 -11.29242,-9.0805 -19.32517,-9.0805 -11.176,0 -19.20875,6.05367 -19.20875,15.13417 0,10.01183 8.382,14.20283 17.81175,18.04458 7.21783,2.91042 14.78492,6.05367 14.78492,13.2715 0,5.588 -5.12234,8.61483 -11.64167,8.61483 -6.17008,0 -11.8745,-3.84175 -15.48342,-8.14916 l -5.70441,5.00591 c 5.00591,5.93725 12.45658,10.36109 20.48933,10.36109 z"
         style="font-size:116.41666412px;letter-spacing:-2.64583325px;fill:#000000;stroke-width:0.26458332"
         id="path5209"
         inkscape:connector-curvature="0" />
      <path
         d="m -246.04323,-173.32849 c 12.34017,0 20.02367,-6.40292 20.02367,-16.29834 0,-11.99091 -10.12825,-16.0655 -18.97592,-19.558 -6.985,-2.794 -13.62075,-5.35516 -13.62075,-11.40883 0,-4.77308 4.42383,-7.79992 11.29242,-7.79992 6.51933,0 11.176,3.37609 14.20283,6.40292 l 5.35517,-4.54025 c -4.77309,-5.70442 -11.29242,-9.0805 -19.32517,-9.0805 -11.176,0 -19.20875,6.05367 -19.20875,15.13417 0,10.01183 8.382,14.20283 17.81175,18.04458 7.21783,2.91042 14.78492,6.05367 14.78492,13.2715 0,5.588 -5.12234,8.61483 -11.64167,8.61483 -6.17008,0 -11.8745,-3.84175 -15.48342,-8.14916 l -5.70441,5.00591 c 5.00591,5.93725 12.45658,10.36109 20.48933,10.36109 z"
         style="font-size:116.41666412px;letter-spacing:-2.64583325px;fill:#000000;stroke-width:0.26458332"
         id="path5211"
         inkscape:connector-curvature="0" />
    </g>
  </g>
</svg>
