<svg xmlns="http://www.w3.org/2000/svg" width="567mm" height="133mm" viewBox="0 0 567 133"><path d="M87.281 66.5H24.937V41.563c0-18.34 6.598-33.25 24.938-33.25s24.937 14.91 24.937 33.25v5.195a3.126 3.126 0 0 0 3.118 3.117h2.078a3.126 3.126 0 0 0 3.117-3.117v-4.806C83.125 18.99 72.968.078 50.005 0c-22.99-.078-33.38 18.6-33.38 41.563V66.5h-4.156C5.585 66.5 0 72.085 0 78.97v41.562C0 127.415 5.585 133 12.469 133H87.28c6.884 0 12.469-5.585 12.469-12.469V78.97c0-6.884-5.585-12.469-12.469-12.469zm4.156 54.031a4.168 4.168 0 0 1-4.156 4.157H12.47a4.168 4.168 0 0 1-4.157-4.157V78.97a4.168 4.168 0 0 1 4.157-4.156H87.28a4.168 4.168 0 0 1 4.156 4.156zm-41.562-8.312a4.168 4.168 0 0 1-4.156-4.156V91.438a4.168 4.168 0 0 1 4.156-4.157 4.168 4.168 0 0 1 4.156 4.157v16.625a4.168 4.168 0 0 1-4.156 4.156z"/><g aria-label="LessPass" style="line-height:1.25;-inkscape-font-specification:'Overpass Light'" font-weight="300" font-size="116.417" font-family="Overpass" letter-spacing="-2.646" word-spacing="0" stroke-width=".265"><path d="M131.88 106.38h48.546v-7.8h-40.397V24.89h-8.149zM214.06 107.778c6.869 0 13.504-2.91 18.161-6.753l-4.424-5.471c-4.54 3.376-9.08 4.656-13.388 4.656-10.128 0-16.182-8.149-17.579-20.256h40.513c.233-2.561.233-4.424.233-5.704 0-20.024-10.827-28.755-23.516-28.755-15.25 0-25.844 11.292-25.844 31.083 0 16.764 9.779 31.2 25.844 31.2zM196.598 72.62c.698-13.505 7.916-19.791 17.462-19.791 6.287 0 15.134 3.725 15.25 19.79zM268.027 107.778c12.34 0 20.024-6.403 20.024-16.299 0-11.99-10.128-16.065-18.976-19.558-6.985-2.794-13.62-5.355-13.62-11.409 0-4.773 4.423-7.8 11.292-7.8 6.52 0 11.176 3.377 14.203 6.403l5.355-4.54c-4.773-5.704-11.293-9.08-19.325-9.08-11.176 0-19.21 6.053-19.21 15.134 0 10.012 8.383 14.203 17.813 18.044 7.217 2.91 14.784 6.054 14.784 13.272 0 5.588-5.122 8.615-11.641 8.615-6.17 0-11.875-3.842-15.484-8.15l-5.704 5.006c5.006 5.938 12.457 10.362 20.49 10.362zM319.27 107.778c12.34 0 20.023-6.403 20.023-16.299 0-11.99-10.128-16.065-18.976-19.558-6.985-2.794-13.62-5.355-13.62-11.409 0-4.773 4.423-7.8 11.292-7.8 6.52 0 11.176 3.377 14.203 6.403l5.355-4.54c-4.773-5.704-11.292-9.08-19.325-9.08-11.176 0-19.209 6.053-19.209 15.134 0 10.012 8.382 14.203 17.812 18.044 7.218 2.91 14.785 6.054 14.785 13.272 0 5.588-5.123 8.615-11.642 8.615-6.17 0-11.874-3.842-15.483-8.15l-5.705 5.006c5.006 5.938 12.457 10.362 20.49 10.362zM355.494 106.38h8.15V72.737h21.653c18.743 0 25.728-12.922 25.728-23.865 0-11.875-6.286-23.982-25.728-23.982h-29.803zm30.501-40.978h-22.352V32.223h22.352c13.621 0 17.23 9.546 17.23 16.648 0 7.8-4.424 16.53-17.23 16.53zM455.36 106.38h7.568V66.1c0-16.88-11.293-20.605-19.791-20.605-8.15 0-16.066 3.492-20.839 6.519l2.329 6.985c4.423-3.027 11.758-6.403 17.695-6.403 6.636 0 13.039 2.561 13.039 14.552v5.006c-5.821-3.143-11.06-4.19-16.066-4.19-11.292-.001-21.653 5.936-21.653 19.673 0 13.388 8.265 20.14 20.256 20.14 6.403 0 12.69-2.91 17.463-7.217zm-16.647-5.704c-8.615 0-13.504-5.239-13.504-13.039 0-8.614 6.868-12.573 14.901-12.573 5.122 0 11.409 2.329 15.25 4.89v11.525c-3.608 4.424-9.43 9.197-16.647 9.197zM495.734 107.778c12.34 0 20.024-6.403 20.024-16.299 0-11.99-10.128-16.065-18.976-19.558-6.985-2.794-13.62-5.355-13.62-11.409 0-4.773 4.423-7.8 11.292-7.8 6.52 0 11.176 3.377 14.203 6.403l5.355-4.54c-4.773-5.704-11.293-9.08-19.325-9.08-11.176 0-19.21 6.053-19.21 15.134 0 10.012 8.383 14.203 17.813 18.044 7.217 2.91 14.785 6.054 14.785 13.272 0 5.588-5.123 8.615-11.642 8.615-6.17 0-11.875-3.842-15.484-8.15l-5.704 5.006c5.006 5.938 12.457 10.362 20.49 10.362zM546.977 107.778c12.34 0 20.023-6.403 20.023-16.299 0-11.99-10.128-16.065-18.976-19.558-6.985-2.794-13.62-5.355-13.62-11.409 0-4.773 4.424-7.8 11.292-7.8 6.52 0 11.176 3.377 14.203 6.403l5.355-4.54c-4.773-5.704-11.292-9.08-19.325-9.08-11.176 0-19.209 6.053-19.209 15.134 0 10.012 8.382 14.203 17.812 18.044 7.218 2.91 14.785 6.054 14.785 13.272 0 5.588-5.123 8.615-11.642 8.615-6.17 0-11.874-3.842-15.483-8.15l-5.705 5.006c5.006 5.938 12.457 10.362 20.49 10.362z"/></g></svg>