<svg xmlns="http://www.w3.org/2000/svg" viewBox="0 0 384 512"><path d="M336 256H96v-96c0-70.6 25.4-128 96-128s96 57.4 96 128v20c0 6.6 5.4 12 12 12h8c6.6 0 12-5.4 12-12v-18.5C320 73.1 280.9.3 192.5 0 104-.3 64 71.6 64 160v96H48c-26.5 0-48 21.5-48 48v160c0 26.5 21.5 48 48 48h288c26.5 0 48-21.5 48-48V304c0-26.5-21.5-48-48-48zm16 208c0 8.8-7.2 16-16 16H48c-8.8 0-16-7.2-16-16V304c0-8.8 7.2-16 16-16h288c8.8 0 16 7.2 16 16v160zm-160-32c-8.8 0-16-7.2-16-16v-64c0-8.8 7.2-16 16-16s16 7.2 16 16v64c0 8.8-7.2 16-16 16z"/></svg>
