<?xml version="1.0" standalone="no"?>
<!DOCTYPE svg PUBLIC "-//W3C//DTD SVG 20010904//EN"
 "http://www.w3.org/TR/2001/REC-SVG-20010904/DTD/svg10.dtd">
<svg version="1.0" xmlns="http://www.w3.org/2000/svg"
 width="280.000000pt" height="280.000000pt" viewBox="0 0 280.000000 280.000000"
 preserveAspectRatio="xMidYMid meet">
<metadata>
Created by potrace 1.11, written by Peter Selinger 2001-2013
</metadata>
<g transform="translate(0.000000,280.000000) scale(0.100000,-0.100000)"
fill="#000000" stroke="none">
<path d="M0 1400 l0 -1400 1400 0 1400 0 0 1400 0 1400 -1400 0 -1400 0 0
-1400z m1534 1064 c92 -24 170 -70 245 -145 213 -213 212 -542 -2 -758 -46
-48 -83 -73 -149 -104 l-88 -42 0 -242 0 -242 78 -3 77 -3 3 -127 3 -127 -78
-3 -78 -3 -3 -42 -3 -42 78 -3 78 -3 3 -127 3 -128 -226 0 -226 0 3 548 3 549
-85 40 c-338 162 -415 598 -152 861 110 109 228 160 376 161 43 1 106 -6 140
-15z"/>
<path d="M1319 2257 c-151 -43 -243 -163 -242 -318 0 -95 31 -168 98 -233 108
-106 293 -118 416 -28 149 110 176 323 59 471 -72 91 -220 139 -331 108z"/>
</g>
</svg>
