<?xml version="1.0" encoding="UTF-8" standalone="no"?>
<svg
   xmlns:dc="http://purl.org/dc/elements/1.1/"
   xmlns:cc="http://creativecommons.org/ns#"
   xmlns:rdf="http://www.w3.org/1999/02/22-rdf-syntax-ns#"
   xmlns:svg="http://www.w3.org/2000/svg"
   xmlns="http://www.w3.org/2000/svg"
   xmlns:sodipodi="http://sodipodi.sourceforge.net/DTD/sodipodi-0.dtd"
   xmlns:inkscape="http://www.inkscape.org/namespaces/inkscape"
   height="150"
   version="1.0"
   viewBox="0 0 960 150"
   width="960"
   xml:space="preserve"
   id="svg2"
   inkscape:version="0.91 r13725"
   sodipodi:docname="featurettes.svg"><metadata
     id="metadata66"><rdf:RDF><cc:Work
         rdf:about=""><dc:format>image/svg+xml</dc:format><dc:type
           rdf:resource="http://purl.org/dc/dcmitype/StillImage" /><dc:title></dc:title></cc:Work></rdf:RDF></metadata><defs
     id="defs64" /><sodipodi:namedview
     pagecolor="#0275d8"
     bordercolor="#666666"
     borderopacity="1"
     objecttolerance="10"
     gridtolerance="10"
     guidetolerance="10"
     inkscape:pageopacity="0"
     inkscape:pageshadow="2"
     inkscape:window-width="1680"
     inkscape:window-height="988"
     id="namedview62"
     showgrid="false"
     inkscape:zoom="1.0727273"
     inkscape:cx="392.80798"
     inkscape:cy="97.45609"
     inkscape:window-x="-8"
     inkscape:window-y="-8"
     inkscape:window-maximized="1"
     inkscape:current-layer="svg2"
     showborder="true"
     inkscape:showpageshadow="false" /><g
     id="Artboard"
     transform="translate(0,40)" /><g
     id="g4288"
     inkscape:export-xdpi="115"
     inkscape:export-ydpi="115"><g
       id="g4279"><g
         id="g4196"
         transform="translate(6.497146,11.819039)"><path
           id="path22"
           d="m 120.27048,26.707981 c 5.62791,0 10.50637,3.206851 12.89812,7.898618 3.80536,-1.62029 8.09675,1.071241 8.2548,5.239121 3.46384,1.221296 5.95149,4.514546 5.95149,8.397272 0,4.921657 -3.9905,8.908881 -8.91104,8.908881 l -29.70346,0 c 0,0.0011 -8.911043,-1.652618 -8.911043,-10.396212 0,-4.37014 2.699483,-8.103278 6.519223,-9.640674 3.02615,-7.400721 7.91479,-10.407006 13.90191,-10.407006 z"
           style="fill:none;stroke:#ffffff;stroke-width:2.21049023;stroke-linejoin:round;stroke-miterlimit:4;stroke-dasharray:none;stroke-opacity:1"
           inkscape:connector-curvature="0" /><g
           transform="matrix(1.1052452,0,0,1.1052452,-32.079628,15.016247)"
           id="g4266"><path
             style="fill:#ffffff"
             d="m 108.97854,44.531879 c -1.105,0 -2,0.895 -2,2 l 0,15.5 20,0 0,-15.5 c 0,-1.105 -0.89498,-2 -2,-2 l -16,0 z m 3.5,3 a 1.5,1.5 0 0 1 1.5,1.5 1.5,1.5 0 0 1 -1.5,1.5 1.5,1.5 0 0 1 -1.5,-1.5 1.5,1.5 0 0 1 1.5,-1.5 z m 5,0 a 1.5,1.5 0 0 1 1.5,1.5 1.5,1.5 0 0 1 -1.5,1.5 1.5,1.5 0 0 1 -1.5,-1.5 1.5,1.5 0 0 1 1.5,-1.5 z m 5,0 a 1.5,1.5 0 0 1 1.5,1.5 1.5,1.5 0 0 1 -1.5,1.5 1.5,1.5 0 0 1 -1.5,-1.5 1.5,1.5 0 0 1 1.5,-1.5 z m -15.5,16.5 0,1.75 20,0 0,-1.75 -20,0 z m 0,3.75 0,1.75 20,0 0,-1.75 -20,0 z m 0,3.75 0,3 c 0,1.105 0.895,2 2,2 l 16,0 c 1.10502,0 2,-0.895 2,-2 l 0,-3 -20,0 z"
             id="path14"
             inkscape:connector-curvature="0" /><path
             inkscape:connector-curvature="0"
             id="path4262"
             d="m 132.86626,44.531879 c -1.105,0 -2,0.895 -2,2 l 0,15.5 20,0 0,-15.5 c 0,-1.105 -0.89498,-2 -2,-2 l -16,0 z m 3.5,3 a 1.5,1.5 0 0 1 1.5,1.5 1.5,1.5 0 0 1 -1.5,1.5 1.5,1.5 0 0 1 -1.5,-1.5 1.5,1.5 0 0 1 1.5,-1.5 z m 5,0 a 1.5,1.5 0 0 1 1.5,1.5 1.5,1.5 0 0 1 -1.5,1.5 1.5,1.5 0 0 1 -1.5,-1.5 1.5,1.5 0 0 1 1.5,-1.5 z m 5,0 a 1.5,1.5 0 0 1 1.5,1.5 1.5,1.5 0 0 1 -1.5,1.5 1.5,1.5 0 0 1 -1.5,-1.5 1.5,1.5 0 0 1 1.5,-1.5 z m -15.5,16.5 0,1.75 20,0 0,-1.75 -20,0 z m 0,3.75 0,1.75 20,0 0,-1.75 -20,0 z m 0,3.75 0,3 c 0,1.105 0.895,2 2,2 l 16,0 c 1.10502,0 2,-0.895 2,-2 l 0,-3 -20,0 z"
             style="fill:#ffffff" /><path
             style="fill:#ffffff"
             d="m 156.75397,44.531879 c -1.105,0 -2,0.895 -2,2 l 0,15.5 20,0 0,-15.5 c 0,-1.105 -0.89498,-2 -2,-2 l -16,0 z m 3.5,3 a 1.5,1.5 0 0 1 1.5,1.5 1.5,1.5 0 0 1 -1.5,1.5 1.5,1.5 0 0 1 -1.5,-1.5 1.5,1.5 0 0 1 1.5,-1.5 z m 5,0 a 1.5,1.5 0 0 1 1.5,1.5 1.5,1.5 0 0 1 -1.5,1.5 1.5,1.5 0 0 1 -1.5,-1.5 1.5,1.5 0 0 1 1.5,-1.5 z m 5,0 a 1.5,1.5 0 0 1 1.5,1.5 1.5,1.5 0 0 1 -1.5,1.5 1.5,1.5 0 0 1 -1.5,-1.5 1.5,1.5 0 0 1 1.5,-1.5 z m -15.5,16.5 0,1.75 20,0 0,-1.75 -20,0 z m 0,3.75 0,1.75 20,0 0,-1.75 -20,0 z m 0,3.75 0,3 c 0,1.105 0.895,2 2,2 l 16,0 c 1.10502,0 2,-0.895 2,-2 l 0,-3 -20,0 z"
             id="path4264"
             inkscape:connector-curvature="0" /></g></g><path
         style="opacity:0.80800003;fill:#ff0000;fill-rule:evenodd;stroke:#ff0000;stroke-width:4;stroke-linecap:butt;stroke-linejoin:miter;stroke-miterlimit:4;stroke-dasharray:none;stroke-opacity:1"
         d="M 87.90006,115.97181 168.31848,36.871728"
         id="path4273"
         inkscape:connector-curvature="0" /></g><path
       sodipodi:nodetypes="cscscssscccccscscsssssscccssscsssccsscsssssssscscsssscssscssscscscccsccssscssccccc"
       inkscape:connector-curvature="0"
       id="path4302"
       d="m 409.28158,111.8599 c 0.10678,-0.27821 -0.7617,-1.65893 -2.37139,-3.77021 l -2.53987,-3.33125 -0.0265,-13.222244 c -0.0153,-7.272241 -0.11882,-13.371647 -0.23167,-13.554207 -0.14962,-0.241988 -3.06733,-0.331948 -10.76645,-0.331948 -8.13458,0 -10.61453,-0.08226 -10.79296,-0.357945 -0.12746,-0.196881 -0.29611,-6.80091 -0.37484,-14.675639 l -0.14319,-14.317692 -32.07165,0 -32.07163,0 0,21.762897 0,21.76288 15.31993,0.149454 c 8.42597,0.08226 15.35682,0.178837 15.4019,0.214754 0.045,0.03589 0.045,1.321696 0,2.857266 l -0.0819,2.791949 -3.1499,0.07803 c -2.5459,0.06297 -3.21853,0.169578 -3.50782,0.555841 -0.46421,0.619769 -0.45146,0.806714 0.0921,1.350216 0.67557,0.675588 15.31932,0.675588 15.99489,0 0.5435,-0.543502 0.55624,-0.730447 0.0921,-1.350216 -0.28929,-0.386263 -0.96192,-0.492844 -3.50783,-0.555841 l -3.14989,-0.07803 0,-2.863545 0,-2.863528 6.01286,-0.07769 c 5.40037,-0.06974 6.0494,-0.02759 6.37138,0.412683 0.259,0.354187 0.35849,2.090344 0.35849,6.254902 l 0,5.764633 -2.6082,3.48614 c -1.61368,2.15686 -2.54521,3.6503 -2.44298,3.91666 0.14522,0.3786 3.17365,0.43054 25.09597,0.43054 22.13439,0 24.94964,-0.0493 25.0992,-0.43895 z m -45.71667,-2.38428 c 0,-0.29281 0.52639,-1.1304 1.16975,-1.86129 l 1.16976,-1.3289 18.2307,0.008 c 13.88125,0.007 18.33835,0.0924 18.68183,0.35794 0.73723,0.5701 2.27136,2.83413 2.10399,3.10498 -0.0862,0.13946 -9.29126,0.25058 -20.75546,0.25058 -19.88968,0 -20.60057,-0.0183 -20.60057,-0.5324 z m 2.91244,-6.26851 c -0.3592,-0.69879 -0.38024,-22.074431 -0.0224,-22.743099 0.27019,-0.504912 1.03412,-0.524376 17.81025,-0.453762 l 17.52793,0.0738 0.075,11.453673 c 0.0414,6.299519 0.0135,11.614978 -0.0626,11.812098 -0.10797,0.28157 -3.88261,0.35842 -17.60404,0.35842 -16.34572,0 -17.48302,-0.0322 -17.7241,-0.50112 z M 320.09638,89.333278 c -0.26033,-0.260335 -0.34362,-4.93165 -0.34362,-19.271616 0,-14.339967 0.0833,-19.011281 0.34362,-19.271616 0.49857,-0.498564 59.23487,-0.498564 59.73342,0 0.52777,0.527778 0.49134,26.094563 -0.0378,26.533718 -0.25189,0.209049 -2.95072,0.342542 -7.94632,0.393015 l -7.56486,0.0765 -0.078,5.562218 c -0.0493,3.511901 -0.19408,5.702141 -0.39302,5.941844 -0.43992,0.530062 -43.18416,0.565268 -43.71344,0.03605 z m 8.46617,22.730392 c 0.28162,-0.18156 0.34542,-2.11117 0.28635,-8.66142 l -0.076,-8.427813 -5.44073,0 -5.44073,0 0,8.590623 0,8.59062 5.15439,0.0708 c 2.83489,0.0389 5.31741,-0.0344 5.5167,-0.16283 z m -8.35975,-3.85786 c -0.36196,-0.36197 -0.44997,-3.53374 -0.44997,-6.46777 0,-4.803147 -0.0328,-4.759123 3.54116,-4.759123 1.8731,0 2.84557,0.117973 3.10157,0.376141 0.27682,0.279172 0.35595,1.38625 0.30704,4.294972 -0.0558,3.31864 -0.14099,6.34409 -0.55584,6.6475 -0.75495,0.55202 -5.37142,0.48079 -5.94394,-0.0917 z"
       style="fill:#ffffff" /><g
       style="fill:#f2f2f2"
       transform="matrix(2.8436861,0,0,2.8436861,562.94828,42.012392)"
       id="g4347"><g
         style="fill:#f2f2f2"
         id="g4305"><g
           style="fill:#f2f2f2"
           id="g4307"><path
             style="fill:#f2f2f2"
             inkscape:connector-curvature="0"
             d="m 17.655,23.253 c -0.045,0 -0.09,-0.006 -0.134,-0.018 -0.128,-0.036 -0.236,-0.121 -0.302,-0.236 L 13.524,16.46 c -0.136,-0.24 -0.051,-0.545 0.188,-0.681 1.103,-0.625 1.787,-1.787 1.787,-3.032 0,-1.93 -1.57,-3.5 -3.5,-3.5 -1.93,0 -3.5,1.57 -3.5,3.5 0,1.245 0.685,2.407 1.787,3.032 0.239,0.136 0.324,0.441 0.188,0.681 L 6.78,22.999 C 6.715,23.114 6.606,23.199 6.478,23.235 6.35,23.27 6.213,23.253 6.098,23.188 2.337,21.057 0,17.056 0,12.747 c 0,-6.617 5.383,-12 12,-12 6.617,0 12,5.383 12,12 0,4.31 -2.337,8.311 -6.099,10.441 -0.075,0.043 -0.16,0.065 -0.246,0.065 z m -3.028,-6.874 3.212,5.683 C 21.035,20.054 23,16.53 23,12.747 c 0,-6.065 -4.935,-11 -11,-11 -6.065,0 -11,4.935 -11,11 0,3.783 1.965,7.307 5.161,9.315 L 9.373,16.379 C 8.207,15.536 7.5,14.186 7.5,12.747 c 0,-2.481 2.019,-4.5 4.5,-4.5 2.481,0 4.5,2.019 4.5,4.5 0,1.439 -0.707,2.789 -1.873,3.632 z"
             id="path4309" /></g></g><g
         style="fill:#f2f2f2"
         id="g4311" /><g
         style="fill:#f2f2f2"
         id="g4313" /><g
         style="fill:#f2f2f2"
         id="g4315" /><g
         style="fill:#f2f2f2"
         id="g4317" /><g
         style="fill:#f2f2f2"
         id="g4319" /><g
         style="fill:#f2f2f2"
         id="g4321" /><g
         style="fill:#f2f2f2"
         id="g4323" /><g
         style="fill:#f2f2f2"
         id="g4325" /><g
         style="fill:#f2f2f2"
         id="g4327" /><g
         style="fill:#f2f2f2"
         id="g4329" /><g
         style="fill:#f2f2f2"
         id="g4331" /><g
         style="fill:#f2f2f2"
         id="g4333" /><g
         style="fill:#f2f2f2"
         id="g4335" /><g
         style="fill:#f2f2f2"
         id="g4337" /><g
         style="fill:#f2f2f2"
         id="g4339" /></g><path
       inkscape:connector-curvature="0"
       id="path4384"
       d="m 800.28067,102.841 c -5.73291,-7.632374 -10.5344,-14.301234 -10.66998,-14.819714 -0.19166,-0.73291 5.2708,-5.06708 24.54723,-19.47692 l 24.79376,-18.53425 6.1572,-0.0181 c 6.08311,-0.0178 6.16838,-0.0351 7.08508,-1.43419 3.5022,-5.34503 9.97926,-7.43998 15.39656,-4.9799 5.2081,2.36509 5.2151,6.33512 0.0255,14.43182 -1.55398,2.42448 -2.29275,4.58162 -3.80597,11.11315 -1.03273,4.45759 -2.1212,8.70006 -2.41881,9.42771 -0.3419,0.83591 -9.51942,8.04471 -24.92771,19.58031 -13.41263,10.041524 -24.69547,18.331504 -25.07298,18.422194 -0.38059,0.0914 -5.33019,-6.01752 -11.10984,-13.71213 z m 35.55864,-6.281104 c 22.18561,-16.64077 24.00508,-18.12481 24.49265,-19.97721 0.28968,-1.10057 1.14167,-4.73964 1.89332,-8.08681 0.75164,-3.34718 1.84814,-8.08409 2.43665,-10.52648 0.58852,-2.44238 0.94305,-4.7716 0.78785,-5.17604 -0.22407,-0.58394 -1.61909,-0.70473 -6.77517,-0.58668 l -6.493,0.14868 -0.50035,2.02592 c -0.62157,2.51673 0.0848,3.86016 1.91315,3.6385 1.86402,-0.22598 4.14378,1.74158 4.14378,3.57631 0,3.40519 -4.03274,5.21904 -6.38149,2.87028 -0.8673,-0.86729 -1.06167,-1.95107 -1.2259,-6.83547 l -0.19518,-5.80474 -5.15621,-0.1522 -5.15622,-0.1522 -24.06069,18.04721 c -14.99725,11.249 -23.96211,18.30411 -23.79899,18.72919 0.52861,1.37751 19.2672,26.237894 19.77691,26.237894 0.18311,0 11.11761,-8.08926 24.29889,-17.976154 z m -27.0369,-1.12558 c -2.19119,-2.64738 -3.98397,-4.99149 -3.98397,-5.20914 0,-0.68849 5.17994,-4.79498 6.04841,-4.79498 1.29678,0 1.00068,0.67805 -1.26011,2.88566 -1.72846,1.6878 -1.99788,2.21657 -1.55298,3.04788 0.86934,1.62438 1.94883,1.68308 3.87894,0.21092 2.12669,-1.62211 2.41129,-1.68043 2.41129,-0.49413 0,0.48816 -0.7626,1.5242 -1.69467,2.30234 l -1.69468,1.41477 1.69468,2.1397 c 0.93207,1.17684 1.69467,2.4031 1.69467,2.72504 0,1.603394 -1.9403,0.123 -5.54158,-4.22806 z m 7.94569,-6.51951 c -2.24581,-2.76379 -3.92283,-5.28471 -3.72671,-5.60205 0.86659,-1.40216 5.77161,-4.76213 6.95197,-4.76213 2.01535,0 4.04162,2.49863 3.66299,4.51691 -0.29871,1.59227 -0.2279,1.66164 2.60906,2.55592 1.77064,0.55814 2.91611,1.2204 2.91611,1.68597 0,0.92594 -1.33092,0.97288 -4.38953,0.15483 -2.67082,-0.71434 -5.13602,-0.26194 -5.13602,0.94252 0,0.46179 0.6052,1.55885 1.34488,2.43792 1.33952,1.59193 1.47523,2.55362 0.41045,2.90855 -0.30795,0.10265 -2.39739,-2.07465 -4.6432,-4.83844 z m 2.66337,-3.29496 c 3.76201,-2.46496 2.15918,-6.23445 -1.64993,-3.88028 -2.25189,1.39173 -2.47613,2.09098 -1.14115,3.55833 1.29291,1.4211 1.14042,1.40351 2.79108,0.32195 z m 6.91927,-4.49864 c -2.189,-2.67599 -3.83448,-5.15928 -3.68199,-5.55666 0.38184,-0.99505 5.42971,-4.95188 6.3173,-4.95188 1.3344,0 0.74452,1.17209 -1.65118,3.28087 -2.35012,2.06865 -2.36588,2.10502 -1.45529,3.35756 1.18541,1.6306 1.43205,1.61205 3.83114,-0.28806 3.63947,-2.88251 4.5633,-1.44481 1.02679,1.59794 l -2.16477,1.86254 1.1366,1.44494 c 0.62512,0.79472 1.37691,1.44495 1.67062,1.44495 0.29371,0 1.5966,-0.87071 2.89531,-1.93489 1.78696,-1.46429 2.51012,-1.78607 2.97319,-1.323 0.69325,0.69325 0.7068,0.67652 -3.02986,3.74149 -1.44996,1.18931 -2.92291,2.16239 -3.27323,2.16239 -0.35032,0 -2.41791,-2.17719 -4.59463,-4.83819 z m 8.96185,-6.85252 c -2.20785,-2.64613 -4.01428,-5.11742 -4.01428,-5.49176 0,-0.7103 5.59405,-5.57303 6.41117,-5.57303 0.56597,0 0.63673,2.11021 0.0715,2.13231 -0.21829,0.009 -1.19929,0.745 -2.17999,1.6366 -1.63298,1.48462 -1.72569,1.72832 -1.10127,2.89507 0.86512,1.61648 1.72635,1.60565 3.89572,-0.049 0.95399,-0.72765 2.00973,-1.32299 2.34608,-1.32299 1.21588,0 0.57188,1.49222 -1.24065,2.8747 -2.1775,1.66087 -2.28644,2.35402 -0.61654,3.9228 l 1.23564,1.16083 2.33644,-1.85724 c 2.46646,-1.9606 3.65943,-2.33608 3.65943,-1.15178 0,0.62038 -5.80657,5.63464 -6.52498,5.63464 -0.14519,0 -2.07042,-2.16501 -4.27827,-4.81114 z m 20.858,-12.89835 c 0,-0.67732 -1.49704,-1.87082 -2.3466,-1.87082 -0.5404,0 -0.31302,1.36228 0.33565,2.01095 0.87587,0.87587 2.01095,0.79677 2.01095,-0.14013 z m 13.28476,-10.31225 c 1.2327,-4.11438 -0.63808,-6.18506 -6.09696,-6.74847 -2.12396,-0.21921 -3.2219,-0.0399 -4.83554,0.78972 -2.34772,1.20701 -5.37347,4.1466 -4.82879,4.69128 0.19629,0.1963 2.91753,0.44907 6.04719,0.56173 7.58418,0.27301 8.07169,0.39649 8.07169,2.04432 0,1.86128 0.90458,1.12403 1.64241,-1.33858 z"
       style="fill:#f2f2f2" /></g></svg>