<?xml version="1.0" encoding="UTF-8" standalone="no"?>
<svg
   xmlns:dc="http://purl.org/dc/elements/1.1/"
   xmlns:cc="http://creativecommons.org/ns#"
   xmlns:rdf="http://www.w3.org/1999/02/22-rdf-syntax-ns#"
   xmlns:svg="http://www.w3.org/2000/svg"
   xmlns="http://www.w3.org/2000/svg"
   xmlns:sodipodi="http://sodipodi.sourceforge.net/DTD/sodipodi-0.dtd"
   xmlns:inkscape="http://www.inkscape.org/namespaces/inkscape"
   height="150"
   version="1.0"
   viewBox="0 0 960 150"
   width="960"
   xml:space="preserve"
   id="svg2"
   inkscape:version="0.48.4 r9939"
   sodipodi:docname="featurettes.svg"><metadata
     id="metadata66"><rdf:RDF><cc:Work
         rdf:about=""><dc:format>image/svg+xml</dc:format><dc:type
           rdf:resource="http://purl.org/dc/dcmitype/StillImage" /><dc:title></dc:title></cc:Work></rdf:RDF></metadata><defs
     id="defs64" /><sodipodi:namedview
     pagecolor="#0275d8"
     bordercolor="#666666"
     borderopacity="1"
     objecttolerance="10"
     gridtolerance="10"
     guidetolerance="10"
     inkscape:pageopacity="0"
     inkscape:pageshadow="2"
     inkscape:window-width="1333"
     inkscape:window-height="744"
     id="namedview62"
     showgrid="false"
     inkscape:zoom="1.0727273"
     inkscape:cx="653.82492"
     inkscape:cy="60.167955"
     inkscape:window-x="33"
     inkscape:window-y="24"
     inkscape:window-maximized="1"
     inkscape:current-layer="g4288"
     showborder="true"
     inkscape:showpageshadow="false" /><g
     id="Artboard"
     transform="translate(0,40)" /><g
     id="g4288"
     inkscape:export-xdpi="115"
     inkscape:export-ydpi="115"><g
       id="g4279"
       inkscape:export-filename="/home/guillaume/workspace/lesspass/lesspass/app/assets/images/no-cloud.png"
       inkscape:export-xdpi="219.54187"
       inkscape:export-ydpi="219.54187"><g
         id="g4196"
         transform="translate(6.497146,11.819039)"><path
           id="path22"
           d="m 120.27048,26.707981 c 5.62791,0 10.50637,3.206851 12.89812,7.898618 3.80536,-1.62029 8.09675,1.071241 8.2548,5.239121 3.46384,1.221296 5.95149,4.514546 5.95149,8.397272 0,4.921657 -3.9905,8.908881 -8.91104,8.908881 l -29.70346,0 c 0,0.0011 -8.911043,-1.652618 -8.911043,-10.396212 0,-4.37014 2.699483,-8.103278 6.519223,-9.640674 3.02615,-7.400721 7.91479,-10.407006 13.90191,-10.407006 z"
           style="fill:none;stroke:#ffffff;stroke-width:2.21049023;stroke-linejoin:round;stroke-miterlimit:4;stroke-dasharray:none;stroke-opacity:1"
           inkscape:connector-curvature="0" /><g
           transform="matrix(1.1052452,0,0,1.1052452,-32.079628,15.016247)"
           id="g4266"><path
             style="fill:#ffffff"
             d="m 108.97854,44.531879 c -1.105,0 -2,0.895 -2,2 l 0,15.5 20,0 0,-15.5 c 0,-1.105 -0.89498,-2 -2,-2 l -16,0 z m 3.5,3 a 1.5,1.5 0 0 1 1.5,1.5 1.5,1.5 0 0 1 -1.5,1.5 1.5,1.5 0 0 1 -1.5,-1.5 1.5,1.5 0 0 1 1.5,-1.5 z m 5,0 a 1.5,1.5 0 0 1 1.5,1.5 1.5,1.5 0 0 1 -1.5,1.5 1.5,1.5 0 0 1 -1.5,-1.5 1.5,1.5 0 0 1 1.5,-1.5 z m 5,0 a 1.5,1.5 0 0 1 1.5,1.5 1.5,1.5 0 0 1 -1.5,1.5 1.5,1.5 0 0 1 -1.5,-1.5 1.5,1.5 0 0 1 1.5,-1.5 z m -15.5,16.5 0,1.75 20,0 0,-1.75 -20,0 z m 0,3.75 0,1.75 20,0 0,-1.75 -20,0 z m 0,3.75 0,3 c 0,1.105 0.895,2 2,2 l 16,0 c 1.10502,0 2,-0.895 2,-2 l 0,-3 -20,0 z"
             id="path14"
             inkscape:connector-curvature="0" /><path
             inkscape:connector-curvature="0"
             id="path4262"
             d="m 132.86626,44.531879 c -1.105,0 -2,0.895 -2,2 l 0,15.5 20,0 0,-15.5 c 0,-1.105 -0.89498,-2 -2,-2 l -16,0 z m 3.5,3 a 1.5,1.5 0 0 1 1.5,1.5 1.5,1.5 0 0 1 -1.5,1.5 1.5,1.5 0 0 1 -1.5,-1.5 1.5,1.5 0 0 1 1.5,-1.5 z m 5,0 a 1.5,1.5 0 0 1 1.5,1.5 1.5,1.5 0 0 1 -1.5,1.5 1.5,1.5 0 0 1 -1.5,-1.5 1.5,1.5 0 0 1 1.5,-1.5 z m 5,0 a 1.5,1.5 0 0 1 1.5,1.5 1.5,1.5 0 0 1 -1.5,1.5 1.5,1.5 0 0 1 -1.5,-1.5 1.5,1.5 0 0 1 1.5,-1.5 z m -15.5,16.5 0,1.75 20,0 0,-1.75 -20,0 z m 0,3.75 0,1.75 20,0 0,-1.75 -20,0 z m 0,3.75 0,3 c 0,1.105 0.895,2 2,2 l 16,0 c 1.10502,0 2,-0.895 2,-2 l 0,-3 -20,0 z"
             style="fill:#ffffff" /><path
             style="fill:#ffffff"
             d="m 156.75397,44.531879 c -1.105,0 -2,0.895 -2,2 l 0,15.5 20,0 0,-15.5 c 0,-1.105 -0.89498,-2 -2,-2 l -16,0 z m 3.5,3 a 1.5,1.5 0 0 1 1.5,1.5 1.5,1.5 0 0 1 -1.5,1.5 1.5,1.5 0 0 1 -1.5,-1.5 1.5,1.5 0 0 1 1.5,-1.5 z m 5,0 a 1.5,1.5 0 0 1 1.5,1.5 1.5,1.5 0 0 1 -1.5,1.5 1.5,1.5 0 0 1 -1.5,-1.5 1.5,1.5 0 0 1 1.5,-1.5 z m 5,0 a 1.5,1.5 0 0 1 1.5,1.5 1.5,1.5 0 0 1 -1.5,1.5 1.5,1.5 0 0 1 -1.5,-1.5 1.5,1.5 0 0 1 1.5,-1.5 z m -15.5,16.5 0,1.75 20,0 0,-1.75 -20,0 z m 0,3.75 0,1.75 20,0 0,-1.75 -20,0 z m 0,3.75 0,3 c 0,1.105 0.895,2 2,2 l 16,0 c 1.10502,0 2,-0.895 2,-2 l 0,-3 -20,0 z"
             id="path4264"
             inkscape:connector-curvature="0" /></g></g><path
         style="opacity:0.80800003;fill:#ff0000;fill-rule:evenodd;stroke:#ff0000;stroke-width:4;stroke-linecap:butt;stroke-linejoin:miter;stroke-miterlimit:4;stroke-dasharray:none;stroke-opacity:1"
         d="M 87.90006,115.97181 168.31848,36.871728"
         id="path4273"
         inkscape:connector-curvature="0" /></g><path
       sodipodi:nodetypes="cscscssscccccscscsssssscccssscsssccsscsssssssscscsssscssscssscscscccsccssscssccccc"
       inkscape:connector-curvature="0"
       id="path4302"
       d="m 409.28158,111.8599 c 0.10678,-0.27821 -0.7617,-1.65893 -2.37139,-3.77021 l -2.53987,-3.33125 -0.0265,-13.222244 c -0.0153,-7.272241 -0.11882,-13.371647 -0.23167,-13.554207 -0.14962,-0.241988 -3.06733,-0.331948 -10.76645,-0.331948 -8.13458,0 -10.61453,-0.08226 -10.79296,-0.357945 -0.12746,-0.196881 -0.29611,-6.80091 -0.37484,-14.675639 l -0.14319,-14.317692 -32.07165,0 -32.07163,0 0,21.762897 0,21.76288 15.31993,0.149454 c 8.42597,0.08226 15.35682,0.178837 15.4019,0.214754 0.045,0.03589 0.045,1.321696 0,2.857266 l -0.0819,2.791949 -3.1499,0.07803 c -2.5459,0.06297 -3.21853,0.169578 -3.50782,0.555841 -0.46421,0.619769 -0.45146,0.806714 0.0921,1.350216 0.67557,0.675588 15.31932,0.675588 15.99489,0 0.5435,-0.543502 0.55624,-0.730447 0.0921,-1.350216 -0.28929,-0.386263 -0.96192,-0.492844 -3.50783,-0.555841 l -3.14989,-0.07803 0,-2.863545 0,-2.863528 6.01286,-0.07769 c 5.40037,-0.06974 6.0494,-0.02759 6.37138,0.412683 0.259,0.354187 0.35849,2.090344 0.35849,6.254902 l 0,5.764633 -2.6082,3.48614 c -1.61368,2.15686 -2.54521,3.6503 -2.44298,3.91666 0.14522,0.3786 3.17365,0.43054 25.09597,0.43054 22.13439,0 24.94964,-0.0493 25.0992,-0.43895 z m -45.71667,-2.38428 c 0,-0.29281 0.52639,-1.1304 1.16975,-1.86129 l 1.16976,-1.3289 18.2307,0.008 c 13.88125,0.007 18.33835,0.0924 18.68183,0.35794 0.73723,0.5701 2.27136,2.83413 2.10399,3.10498 -0.0862,0.13946 -9.29126,0.25058 -20.75546,0.25058 -19.88968,0 -20.60057,-0.0183 -20.60057,-0.5324 z m 2.91244,-6.26851 c -0.3592,-0.69879 -0.38024,-22.074431 -0.0224,-22.743099 0.27019,-0.504912 1.03412,-0.524376 17.81025,-0.453762 l 17.52793,0.0738 0.075,11.453673 c 0.0414,6.299519 0.0135,11.614978 -0.0626,11.812098 -0.10797,0.28157 -3.88261,0.35842 -17.60404,0.35842 -16.34572,0 -17.48302,-0.0322 -17.7241,-0.50112 z M 320.09638,89.333278 c -0.26033,-0.260335 -0.34362,-4.93165 -0.34362,-19.271616 0,-14.339967 0.0833,-19.011281 0.34362,-19.271616 0.49857,-0.498564 59.23487,-0.498564 59.73342,0 0.52777,0.527778 0.49134,26.094563 -0.0378,26.533718 -0.25189,0.209049 -2.95072,0.342542 -7.94632,0.393015 l -7.56486,0.0765 -0.078,5.562218 c -0.0493,3.511901 -0.19408,5.702141 -0.39302,5.941844 -0.43992,0.530062 -43.18416,0.565268 -43.71344,0.03605 z m 8.46617,22.730392 c 0.28162,-0.18156 0.34542,-2.11117 0.28635,-8.66142 l -0.076,-8.427813 -5.44073,0 -5.44073,0 0,8.590623 0,8.59062 5.15439,0.0708 c 2.83489,0.0389 5.31741,-0.0344 5.5167,-0.16283 z m -8.35975,-3.85786 c -0.36196,-0.36197 -0.44997,-3.53374 -0.44997,-6.46777 0,-4.803147 -0.0328,-4.759123 3.54116,-4.759123 1.8731,0 2.84557,0.117973 3.10157,0.376141 0.27682,0.279172 0.35595,1.38625 0.30704,4.294972 -0.0558,3.31864 -0.14099,6.34409 -0.55584,6.6475 -0.75495,0.55202 -5.37142,0.48079 -5.94394,-0.0917 z"
       style="fill:#ffffff"
       inkscape:export-filename="/home/guillaume/workspace/lesspass/lesspass/app/assets/images/all-devices.png"
       inkscape:export-xdpi="281.62247"
       inkscape:export-ydpi="281.62247" /><g
       style="fill:#f2f2f2"
       transform="matrix(2.8436861,0,0,2.8436861,562.94828,42.012392)"
       id="g4347"
       inkscape:export-filename="/home/guillaume/workspace/lesspass/lesspass/app/assets/images/open-source.png"
       inkscape:export-xdpi="281.25003"
       inkscape:export-ydpi="281.25003"><g
         style="fill:#f2f2f2"
         id="g4305"><g
           style="fill:#f2f2f2"
           id="g4307"><path
             style="fill:#f2f2f2"
             inkscape:connector-curvature="0"
             d="m 17.655,23.253 c -0.045,0 -0.09,-0.006 -0.134,-0.018 -0.128,-0.036 -0.236,-0.121 -0.302,-0.236 L 13.524,16.46 c -0.136,-0.24 -0.051,-0.545 0.188,-0.681 1.103,-0.625 1.787,-1.787 1.787,-3.032 0,-1.93 -1.57,-3.5 -3.5,-3.5 -1.93,0 -3.5,1.57 -3.5,3.5 0,1.245 0.685,2.407 1.787,3.032 0.239,0.136 0.324,0.441 0.188,0.681 L 6.78,22.999 C 6.715,23.114 6.606,23.199 6.478,23.235 6.35,23.27 6.213,23.253 6.098,23.188 2.337,21.057 0,17.056 0,12.747 c 0,-6.617 5.383,-12 12,-12 6.617,0 12,5.383 12,12 0,4.31 -2.337,8.311 -6.099,10.441 -0.075,0.043 -0.16,0.065 -0.246,0.065 z m -3.028,-6.874 3.212,5.683 C 21.035,20.054 23,16.53 23,12.747 c 0,-6.065 -4.935,-11 -11,-11 -6.065,0 -11,4.935 -11,11 0,3.783 1.965,7.307 5.161,9.315 L 9.373,16.379 C 8.207,15.536 7.5,14.186 7.5,12.747 c 0,-2.481 2.019,-4.5 4.5,-4.5 2.481,0 4.5,2.019 4.5,4.5 0,1.439 -0.707,2.789 -1.873,3.632 z"
             id="path4309" /></g></g><g
         style="fill:#f2f2f2"
         id="g4311" /><g
         style="fill:#f2f2f2"
         id="g4313" /><g
         style="fill:#f2f2f2"
         id="g4315" /><g
         style="fill:#f2f2f2"
         id="g4317" /><g
         style="fill:#f2f2f2"
         id="g4319" /><g
         style="fill:#f2f2f2"
         id="g4321" /><g
         style="fill:#f2f2f2"
         id="g4323" /><g
         style="fill:#f2f2f2"
         id="g4325" /><g
         style="fill:#f2f2f2"
         id="g4327" /><g
         style="fill:#f2f2f2"
         id="g4329" /><g
         style="fill:#f2f2f2"
         id="g4331" /><g
         style="fill:#f2f2f2"
         id="g4333" /><g
         style="fill:#f2f2f2"
         id="g4335" /><g
         style="fill:#f2f2f2"
         id="g4337" /><g
         style="fill:#f2f2f2"
         id="g4339" /></g><path
       style="fill:#f2f2f2"
       d="m 800.28067,102.841 c -3.60083,-4.907156 -7.3782,-9.69372 -10.66998,-14.819714 3.85019,-4.488546 9.07561,-7.497602 13.6021,-11.240731 11.86869,-8.982467 23.82949,-17.842212 35.73889,-26.770439 4.35801,-0.72313 10.22842,1.659622 13.46578,-1.862643 3.17592,-4.466391 9.14628,-6.897444 14.42617,-4.91462 4.15064,1.031433 5.72397,5.740878 3.77976,9.304463 -1.83727,4.08764 -4.88233,7.625853 -5.71165,12.147096 -1.28228,4.594386 -2.07279,9.316419 -3.5205,13.866194 -9.41417,8.415437 -19.85674,15.573691 -29.85719,23.261004 -6.65859,4.98943 -13.33491,9.95767 -20.1435,14.7415 -4.16653,-4.17799 -7.47273,-9.09103 -11.10988,-13.71211 z m 35.55864,-6.281104 c 7.71134,-5.926782 15.73354,-11.466909 23.06447,-17.874715 2.77424,-3.458443 2.43868,-8.196332 3.75046,-12.244638 0.97498,-4.537751 2.48124,-8.989464 2.79554,-13.647187 -3.26983,-1.322791 -6.87449,-0.335482 -10.30512,-0.505845 -2.13496,-0.281578 -3.84568,0.129579 -3.58726,2.74983 -0.95883,4.643826 7.43516,1.845399 5.95749,7.357968 -0.80959,5.527784 -8.64079,2.777015 -7.30926,-2.139649 -0.89659,-2.426194 1.45195,-8.174228 -1.59322,-8.468559 -2.9964,-0.08845 -5.99279,-0.176894 -8.98919,-0.265341 -15.641,11.882058 -31.63643,23.31411 -46.86027,35.734004 -1.41082,4.199869 4.48866,6.962648 5.91767,10.67397 4.19109,5.607656 8.31003,11.279606 12.85983,16.606316 8.20804,-5.84429 16.21567,-11.96212 24.29886,-17.976154 z m -27.0369,-1.12558 c -3.18169,-2.431751 -5.08512,-7.017266 -0.32855,-8.804835 1.3613,-1.397966 4.54265,-1.03287 1.88931,0.928551 -3.75452,0.692509 -1.96697,7.586142 1.3619,4.050776 2.50974,-2.745513 3.43271,0.587793 0.90528,1.821973 -4.50957,1.230332 4.58111,6.518378 0.22086,6.266561 -1.56911,-1.19689 -2.76076,-2.78839 -4.0488,-4.263026 z m 7.94569,-6.51951 c -2.87484,-2.339884 -4.97076,-7.143108 -0.32283,-8.791687 3.81212,-3.743963 8.1252,1.052876 7.74001,4.674194 1.68089,0.280109 7.28083,3.064984 2.82105,3.045903 -2.49743,-1.323364 -9.80147,-0.930691 -5.79804,2.899427 2.23659,2.923222 -1.10573,3.486108 -2.18114,0.816888 -0.77858,-0.859352 -1.52633,-1.746121 -2.25905,-2.644725 z m 2.66337,-3.29496 c 5.16935,-2.393159 -1.41142,-7.336139 -3.4332,-2.45714 -0.66785,1.748975 2.02142,4.309861 3.4332,2.45714 z m 6.91927,-4.49864 c -3.50817,-2.560655 -4.39986,-7.633179 0.24906,-9.341355 1.86352,-1.849718 4.43972,-0.3112 1.44137,1.272605 -3.41063,0.905606 -2.69821,7.366937 0.84159,4.37462 1.47249,-1.561952 5.69949,-2.722982 2.68328,0.530401 -3.3081,0.780803 -3.25322,5.359195 0.46051,4.874467 1.50261,-0.228417 5.99224,-5.064655 4.82992,-1.209222 -1.96759,2.316954 -6.22178,6.035034 -8.57766,1.975536 -0.46168,-0.94654 -1.31757,-1.62967 -1.92807,-2.477052 z m 8.96185,-6.85252 c -2.97071,-2.515216 -5.38493,-6.960838 -0.72322,-9.11999 1.20565,-1.988081 5.52545,-1.788028 2.35223,0.500795 -3.54167,0.842394 -2.83188,7.721589 0.9851,4.366449 1.26533,-1.589688 5.11118,-1.6034 2.15807,0.614948 -4.43849,2.10074 -0.0108,8.556753 2.75631,3.617272 1.36051,-1.480403 4.31599,-1.905557 2.15847,0.510333 -1.96945,2.889935 -6.40963,5.850644 -8.2654,1.194286 -0.47655,-0.559086 -0.94891,-1.121713 -1.42156,-1.684093 z m 20.858,-12.89835 c -0.53906,-2.907645 -4.48278,-1.218847 -1.5137,0.544441 0.49766,0.347783 1.58909,0.28367 1.5137,-0.544441 z m 13.28476,-10.31225 c 2.23228,-5.175194 -4.84261,-7.779636 -8.87078,-6.676124 -2.5337,0.491003 -6.76192,3.304785 -6.39586,5.323376 3.89359,1.237162 8.12261,0.212808 12.02913,1.04115 1.71171,0.550354 2.23867,4.195007 3.03794,0.918145 l 0.19957,-0.606547 z"
       id="path4384"
       inkscape:connector-curvature="0"
       inkscape:export-filename="/home/guillaume/workspace/lesspass/lesspass/app/assets/images/free.png"
       inkscape:export-xdpi="243"
       inkscape:export-ydpi="243" /></g></svg>