<?xml version="1.0" encoding="UTF-8" standalone="no"?>
<!-- Created with Inkscape (http://www.inkscape.org/) -->

<svg
   xmlns:dc="http://purl.org/dc/elements/1.1/"
   xmlns:cc="http://creativecommons.org/ns#"
   xmlns:rdf="http://www.w3.org/1999/02/22-rdf-syntax-ns#"
   xmlns:svg="http://www.w3.org/2000/svg"
   xmlns="http://www.w3.org/2000/svg"
   xmlns:sodipodi="http://sodipodi.sourceforge.net/DTD/sodipodi-0.dtd"
   xmlns:inkscape="http://www.inkscape.org/namespaces/inkscape"
   id="svg3039"
   version="1.1"
   inkscape:version="0.48.4 r9939"
   width="400"
   height="300"
   sodipodi:docname="lesspass.svg">
  <metadata
     id="metadata3045">
    <rdf:RDF>
      <cc:Work
         rdf:about="">
        <dc:format>image/svg+xml</dc:format>
        <dc:type
           rdf:resource="http://purl.org/dc/dcmitype/StillImage" />
        <dc:title></dc:title>
      </cc:Work>
    </rdf:RDF>
  </metadata>
  <defs
     id="defs3043">
    <filter
       id="filter5169"
       style="color-interpolation-filters:sRGB;"
       inkscape:label="Drop Shadow">
      <feFlood
         id="feFlood5171"
         flood-opacity="0.4"
         flood-color="rgb(0,0,0)"
         result="flood" />
      <feComposite
         id="feComposite5173"
         in2="SourceGraphic"
         in="flood"
         operator="in"
         result="composite1" />
      <feGaussianBlur
         id="feGaussianBlur5175"
         in="composite"
         stdDeviation="2"
         result="blur" />
      <feOffset
         id="feOffset5177"
         dx="4"
         dy="4"
         result="offset" />
      <feComposite
         id="feComposite5179"
         in2="offset"
         in="SourceGraphic"
         operator="over"
         result="composite2" />
    </filter>
    <filter
       id="filter3013"
       style="color-interpolation-filters:sRGB;"
       inkscape:label="Drop Shadow">
      <feFlood
         id="feFlood3015"
         flood-opacity="0.4"
         flood-color="rgb(0,0,0)"
         result="flood" />
      <feComposite
         id="feComposite3017"
         in2="SourceGraphic"
         in="flood"
         operator="in"
         result="composite1" />
      <feGaussianBlur
         id="feGaussianBlur3019"
         in="composite"
         stdDeviation="1"
         result="blur" />
      <feOffset
         id="feOffset3021"
         dx="4"
         dy="4"
         result="offset" />
      <feComposite
         id="feComposite3023"
         in2="offset"
         in="SourceGraphic"
         operator="over"
         result="composite2" />
    </filter>
    <filter
       id="filter3097"
       style="color-interpolation-filters:sRGB;"
       inkscape:label="Drop Shadow">
      <feFlood
         id="feFlood3099"
         flood-opacity="0.4"
         flood-color="rgb(0,0,0)"
         result="flood" />
      <feComposite
         id="feComposite3101"
         in2="SourceGraphic"
         in="flood"
         operator="in"
         result="composite1" />
      <feGaussianBlur
         id="feGaussianBlur3103"
         in="composite"
         stdDeviation="2"
         result="blur" />
      <feOffset
         id="feOffset3105"
         dx="4"
         dy="4"
         result="offset" />
      <feComposite
         id="feComposite3107"
         in2="offset"
         in="SourceGraphic"
         operator="over"
         result="composite2" />
    </filter>
  </defs>
  <sodipodi:namedview
     pagecolor="#b1b1b1"
     bordercolor="#666666"
     borderopacity="1"
     objecttolerance="10"
     gridtolerance="10"
     guidetolerance="10"
     inkscape:pageopacity="0"
     inkscape:pageshadow="2"
     inkscape:window-width="1333"
     inkscape:window-height="744"
     id="namedview3041"
     showgrid="false"
     inkscape:zoom="1.99"
     inkscape:cx="182.29418"
     inkscape:cy="134.46388"
     inkscape:window-x="33"
     inkscape:window-y="24"
     inkscape:window-maximized="1"
     inkscape:current-layer="svg3039"
     showguides="true"
     inkscape:guide-bbox="true"
     inkscape:showpageshadow="false" />
  <rect
     style="opacity:0.90000000000000002;fill:#0275d8;fill-opacity:1;stroke:none"
     id="rect3843"
     width="120.10646"
     height="120.10646"
     x="95.2127"
     y="225.32025"
     rx="24.021292"
     transform="matrix(0.70710678,-0.70710678,0.70710678,0.70710678,0,0)"
     inkscape:export-filename="/home/guillaume/workspace/oslab/lesspass/app/assets/images/logo.png"
     inkscape:export-xdpi="115.20001"
     inkscape:export-ydpi="115.20001" />
  <path
     style="font-size:medium;font-style:normal;font-variant:normal;font-weight:normal;font-stretch:normal;text-indent:0;text-align:start;text-decoration:none;line-height:normal;letter-spacing:normal;word-spacing:normal;text-transform:none;direction:ltr;block-progression:tb;writing-mode:lr-tb;text-anchor:start;baseline-shift:baseline;color:#000000;fill:#ffffff;fill-opacity:1;fill-rule:nonzero;stroke:none;stroke-width:10;marker:none;visibility:visible;display:inline;overflow:visible;filter:url(#filter3013);enable-background:accumulate;font-family:Sans;-inkscape-font-specification:Sans"
     d="m 311.57912,47 c -12.36404,0 -22.47187,10.13599 -22.47187,22.5 0,10.27949 6.99118,18.97952 16.45312,21.62813 l 0,45.87187 4.21875,0 7.81876,0 6.21562,0 c 0.12595,0 0.225,-0.0991 0.225,-0.225 l 0,-10.2375 c 0,-0.12594 -0.10402,-0.26004 -0.225,-0.225 l -6.21562,0 0,-3.85312 6.21562,0 c 0.12595,0 0.225,-0.0991 0.225,-0.225 l 0,-10.2375 c 0,-0.12595 -0.099,-0.225 -0.225,-0.225 l -6.21562,0 0,-20.64375 C 327.0598,88.47952 334.051,79.7795 334.051,69.5 334.051,57.13598 323.94312,47 311.57912,47 z m 0,8.83125 c 7.59627,0 13.64063,6.07247 13.64063,13.66875 0,7.59632 -6.04436,13.64063 -13.64063,13.64063 -7.59624,0 -13.64062,-6.04431 -13.64062,-13.64063 0,-7.59628 6.04438,-13.66875 13.64062,-13.66875 z"
     id="path3056"
     inkscape:connector-curvature="0"
     sodipodi:nodetypes="ssccccssssccssssccsssssss"
     inkscape:export-xdpi="115.20001"
     inkscape:export-ydpi="115.20001"
     inkscape:export-filename="/home/guillaume/workspace/oslab/lesspass/app/assets/images/logo.png" />
  <path
     style="opacity:0.9;fill:#ffffff;fill-opacity:1;stroke:none;filter:url(#filter3097)"
     d="m 101.39259,17.016268 c -5.751278,0.275685 -11.432799,2.620297 -15.843752,7.03125 L 34.580088,75.01626 c -9.410033,9.41003 -9.410033,24.55872 0,33.96875 l 50.96875,50.96875 c 9.410033,9.41003 24.558722,9.41003 33.968752,0 l 50.96875,-50.96875 c 9.41003,-9.41003 9.41003,-24.55872 0,-33.96875 L 119.51759,24.047518 c -4.99908,-4.99908 -11.60689,-7.343692 -18.125,-7.03125 z m 0,30.000002 c 0.38173,-0.0196 0.76987,0 1.15625,0 12.364,0 22.46875,10.13598 22.46875,22.49999 0,10.2795 -7.00683,18.97639 -16.46875,21.625 l 0,20.625 6.21875,0 c 0.126,0 0.21875,0.0928 0.21875,0.21875 l 0,10.25 c 0,0.1259 -0.0928,0.21875 -0.21875,0.21875 l -6.21875,0 0,3.875 6.21875,0 c 0.12098,-0.035 0.21875,0.0928 0.21875,0.21875 l 0,10.21875 c 0,0.1259 -0.0928,0.25 -0.21875,0.25 l -6.21875,0 -7.8125,0 -4.218752,0 0,-45.875 c -9.46194,-2.64861 -16.46875,-11.34551 -16.46875,-21.625 0,-11.97763 9.510121,-21.89377 21.343752,-22.49999 z m 1.15625,8.8125 c -7.596242,0 -13.656252,6.09122 -13.656252,13.68749 0,7.59632 6.06001,13.625 13.656252,13.625 7.59627,0 13.625,-6.02868 13.625,-13.625 0,-7.59627 -6.02873,-13.68749 -13.625,-13.68749 z"
     id="rect3044"
     inkscape:connector-curvature="0" />
  <rect
     style="opacity:0.90000000000000002;fill:#137bd4;fill-opacity:1;stroke:none"
     id="rect3127"
     width="116.58292"
     height="116.58292"
     x="141.70854"
     y="176.42212"
     rx="0"
     inkscape:export-filename="/home/guillaume/Desktop/path3129.png"
     inkscape:export-xdpi="216"
     inkscape:export-ydpi="216" />
  <path
     inkscape:export-ydpi="216.93787"
     inkscape:export-xdpi="216.93787"
     sodipodi:nodetypes="ssccccssssccssssccsssssss"
     inkscape:connector-curvature="0"
     id="path3129"
     d="m 199.99999,189.71357 c -12.36404,0 -22.47187,10.13599 -22.47187,22.5 0,10.27949 6.99118,18.97952 16.45312,21.62813 l 0,45.87187 4.21875,0 7.81876,0 6.21562,0 c 0.12595,0 0.225,-0.0991 0.225,-0.225 l 0,-10.2375 c 0,-0.12594 -0.10402,-0.26004 -0.225,-0.225 l -6.21562,0 0,-3.85312 6.21562,0 c 0.12595,0 0.225,-0.0991 0.225,-0.225 l 0,-10.2375 c 0,-0.12595 -0.099,-0.225 -0.225,-0.225 l -6.21562,0 0,-20.64375 c 9.46192,-2.64861 16.45312,-11.34863 16.45312,-21.62813 0,-12.36402 -10.10787,-22.5 -22.47187,-22.5 z m 0,8.83125 c 7.59627,0 13.64063,6.07247 13.64063,13.66875 0,7.59632 -6.04436,13.64063 -13.64063,13.64063 -7.59624,0 -13.64062,-6.04431 -13.64062,-13.64063 0,-7.59628 6.04438,-13.66875 13.64062,-13.66875 z"
     style="font-size:medium;font-style:normal;font-variant:normal;font-weight:normal;font-stretch:normal;text-indent:0;text-align:start;text-decoration:none;line-height:normal;letter-spacing:normal;word-spacing:normal;text-transform:none;direction:ltr;block-progression:tb;writing-mode:lr-tb;text-anchor:start;baseline-shift:baseline;color:#000000;fill:#ffffff;fill-opacity:1;fill-rule:nonzero;stroke:none;stroke-width:10;marker:none;visibility:visible;display:inline;overflow:visible;filter:url(#filter3013);enable-background:accumulate;font-family:Sans;-inkscape-font-specification:Sans"
     inkscape:export-filename="/home/guillaume/Desktop/path3129.png" />
</svg>
