<?xml version="1.0" standalone="no"?>
<!DOCTYPE svg PUBLIC "-//W3C//DTD SVG 20010904//EN"
 "http://www.w3.org/TR/2001/REC-SVG-20010904/DTD/svg10.dtd">
<svg version="1.0" xmlns="http://www.w3.org/2000/svg"
 width="280.000000pt" height="280.000000pt" viewBox="0 0 280.000000 280.000000"
 preserveAspectRatio="xMidYMid meet">
<metadata>
Created by potrace 1.11, written by Peter Selinger 2001-2013
</metadata>
<g transform="translate(0.000000,280.000000) scale(0.100000,-0.100000)"
fill="#000000" stroke="none">
<path d="M0 1400 l0 -1400 1400 0 1400 0 0 1400 0 1400 -1400 0 -1400 0 0
-1400z m1512 1069 c252 -52 447 -312 423 -562 -14 -147 -68 -260 -169 -355
-56 -52 -143 -104 -209 -126 -16 -5 -17 -24 -15 -253 l3 -248 75 0 75 0 3
-127 3 -128 -81 0 -81 0 3 -47 3 -48 75 0 75 0 3 -127 3 -128 -226 0 -226 0 2
551 2 551 -54 22 c-307 126 -430 487 -263 771 41 71 147 171 220 206 113 56
238 72 356 48z"/>
<path d="M1315 2258 c-54 -15 -137 -69 -169 -110 -49 -65 -70 -127 -70 -208
-1 -66 4 -85 32 -143 49 -99 129 -158 236 -175 107 -17 210 15 283 86 149 146
124 396 -51 506 -82 52 -170 67 -261 44z"/>
</g>
</svg>
