<?xml version="1.0" encoding="UTF-8" standalone="no"?>
<!-- Created with Inkscape (http://www.inkscape.org/) -->

<svg
   xmlns:dc="http://purl.org/dc/elements/1.1/"
   xmlns:cc="http://creativecommons.org/ns#"
   xmlns:rdf="http://www.w3.org/1999/02/22-rdf-syntax-ns#"
   xmlns:svg="http://www.w3.org/2000/svg"
   xmlns="http://www.w3.org/2000/svg"
   xmlns:sodipodi="http://sodipodi.sourceforge.net/DTD/sodipodi-0.dtd"
   xmlns:inkscape="http://www.inkscape.org/namespaces/inkscape"
   id="svg3039"
   version="1.1"
   inkscape:version="0.91 r13725"
   width="180"
   height="180"
   sodipodi:docname="LessPass-icon-white.svg">
  <metadata
     id="metadata3045">
    <rdf:RDF>
      <cc:Work
         rdf:about="">
        <dc:format>image/svg+xml</dc:format>
        <dc:type
           rdf:resource="http://purl.org/dc/dcmitype/StillImage" />
        <dc:title></dc:title>
      </cc:Work>
    </rdf:RDF>
  </metadata>
  <defs
     id="defs3043">
    <filter
       id="filter5169"
       style="color-interpolation-filters:sRGB"
       inkscape:label="Drop Shadow">
      <feFlood
         id="feFlood5171"
         flood-opacity="0.4"
         flood-color="rgb(0,0,0)"
         result="flood" />
      <feComposite
         id="feComposite5173"
         in2="SourceGraphic"
         in="flood"
         operator="in"
         result="composite1" />
      <feGaussianBlur
         id="feGaussianBlur5175"
         stdDeviation="2"
         result="blur" />
      <feOffset
         id="feOffset5177"
         dx="4"
         dy="4"
         result="offset" />
      <feComposite
         id="feComposite5179"
         in2="offset"
         in="SourceGraphic"
         operator="over"
         result="composite2" />
    </filter>
    <filter
       id="filter3013"
       style="color-interpolation-filters:sRGB"
       inkscape:label="Drop Shadow">
      <feFlood
         id="feFlood3015"
         flood-opacity="0.4"
         flood-color="rgb(0,0,0)"
         result="flood" />
      <feComposite
         id="feComposite3017"
         in2="SourceGraphic"
         in="flood"
         operator="in"
         result="composite1" />
      <feGaussianBlur
         id="feGaussianBlur3019"
         stdDeviation="1"
         result="blur" />
      <feOffset
         id="feOffset3021"
         dx="4"
         dy="4"
         result="offset" />
      <feComposite
         id="feComposite3023"
         in2="offset"
         in="SourceGraphic"
         operator="over"
         result="composite2" />
    </filter>
    <filter
       id="filter3097"
       style="color-interpolation-filters:sRGB"
       inkscape:label="Drop Shadow">
      <feFlood
         id="feFlood3099"
         flood-opacity="0.4"
         flood-color="rgb(0,0,0)"
         result="flood" />
      <feComposite
         id="feComposite3101"
         in2="SourceGraphic"
         in="flood"
         operator="in"
         result="composite1" />
      <feGaussianBlur
         id="feGaussianBlur3103"
         stdDeviation="2"
         result="blur" />
      <feOffset
         id="feOffset3105"
         dx="4"
         dy="4"
         result="offset" />
      <feComposite
         id="feComposite3107"
         in2="offset"
         in="SourceGraphic"
         operator="over"
         result="composite2" />
    </filter>
  </defs>
  <sodipodi:namedview
     pagecolor="#b1b1b1"
     bordercolor="#666666"
     borderopacity="1"
     objecttolerance="10"
     gridtolerance="10"
     guidetolerance="10"
     inkscape:pageopacity="0"
     inkscape:pageshadow="2"
     inkscape:window-width="1871"
     inkscape:window-height="1056"
     id="namedview3041"
     showgrid="false"
     inkscape:zoom="2.814285"
     inkscape:cx="83.115942"
     inkscape:cy="134.0767"
     inkscape:window-x="49"
     inkscape:window-y="24"
     inkscape:window-maximized="1"
     inkscape:current-layer="svg3039"
     showguides="true"
     inkscape:guide-bbox="true"
     inkscape:showpageshadow="false" />
  <path
     style="opacity:0.9;fill:#ffffff;fill-opacity:1;stroke:none;filter:url(#filter3097)"
     d="m 88.85937,15.01627 c -5.751278,0.27568 -11.432799,2.6203 -15.843752,7.031248 L 22.046868,73.01626 c -9.410033,9.41003 -9.410033,24.55872 0,33.96875 l 50.96875,50.96875 c 9.410033,9.41003 24.558722,9.41003 33.968752,0 l 50.96875,-50.96875 c 9.41003,-9.41003 9.41003,-24.55872 0,-33.96875 L 106.98437,22.047518 C 101.98529,17.04844 95.37748,14.70383 88.85937,15.01627 Z m 0,30 c 0.38173,-0.0196 0.76987,0 1.15625,0 12.364,0 22.46875,10.13598 22.46875,22.49999 0,10.2795 -7.00683,18.97639 -16.46875,21.625 l 0,20.625 6.21875,0 c 0.126,0 0.21875,0.0928 0.21875,0.21875 l 0,10.25 c 0,0.1259 -0.0928,0.21875 -0.21875,0.21875 l -6.21875,0 0,3.875 6.21875,0 c 0.12098,-0.035 0.21875,0.0928 0.21875,0.21875 l 0,10.21875 c 0,0.1259 -0.0928,0.25 -0.21875,0.25 l -6.21875,0 -7.8125,0 -4.218752,0 0,-45.875 c -9.46194,-2.64861 -16.46875,-11.34551 -16.46875,-21.625 0,-11.97763 9.510121,-21.89377 21.343752,-22.49999 z m 1.15625,8.8125 c -7.596242,0 -13.656252,6.09122 -13.656252,13.68749 0,7.59632 6.06001,13.625 13.656252,13.625 7.59627,0 13.625,-6.02868 13.625,-13.625 0,-7.59627 -6.02873,-13.68749 -13.625,-13.68749 z"
     id="rect3044"
     inkscape:connector-curvature="0" />
</svg>
